<mxfile host="app.diagrams.net" modified="2023-11-06T19:59:06.379Z" agent="Mozilla/5.0 (Windows NT 10.0; Win64; x64) AppleWebKit/537.36 (KHTML, like Gecko) Chrome/118.0.0.0 Safari/537.36" etag="KJlamA2mChBQJ6P5P1T5" version="22.0.8" type="device">
  <diagram name="Trang-1" id="RLQIcSVnunIKK1kuEKI5">
    <mxGraphModel dx="1434" dy="1965" grid="1" gridSize="10" guides="1" tooltips="1" connect="1" arrows="1" fold="1" page="1" pageScale="1" pageWidth="827" pageHeight="1169" math="0" shadow="0">
      <root>
        <mxCell id="0" />
        <mxCell id="1" parent="0" />
        <mxCell id="OgUKtlnv02jX3dV951FN-1" value="" style="edgeStyle=orthogonalEdgeStyle;rounded=0;orthogonalLoop=1;jettySize=auto;html=1;" edge="1" parent="1" source="OgUKtlnv02jX3dV951FN-2" target="OgUKtlnv02jX3dV951FN-4">
          <mxGeometry relative="1" as="geometry" />
        </mxCell>
        <mxCell id="OgUKtlnv02jX3dV951FN-2" value="START" style="ellipse;whiteSpace=wrap;html=1;" vertex="1" parent="1">
          <mxGeometry x="290" y="-970" width="120" height="80" as="geometry" />
        </mxCell>
        <mxCell id="OgUKtlnv02jX3dV951FN-3" value="" style="edgeStyle=orthogonalEdgeStyle;rounded=0;orthogonalLoop=1;jettySize=auto;html=1;" edge="1" parent="1" source="OgUKtlnv02jX3dV951FN-4" target="OgUKtlnv02jX3dV951FN-7">
          <mxGeometry relative="1" as="geometry" />
        </mxCell>
        <mxCell id="OgUKtlnv02jX3dV951FN-4" value="nhập a,b" style="shape=parallelogram;perimeter=parallelogramPerimeter;whiteSpace=wrap;html=1;fixedSize=1;" vertex="1" parent="1">
          <mxGeometry x="290" y="-850" width="120" height="60" as="geometry" />
        </mxCell>
        <mxCell id="OgUKtlnv02jX3dV951FN-5" value="" style="edgeStyle=orthogonalEdgeStyle;rounded=0;orthogonalLoop=1;jettySize=auto;html=1;" edge="1" parent="1" source="OgUKtlnv02jX3dV951FN-7" target="OgUKtlnv02jX3dV951FN-9">
          <mxGeometry relative="1" as="geometry" />
        </mxCell>
        <mxCell id="OgUKtlnv02jX3dV951FN-6" value="" style="edgeStyle=orthogonalEdgeStyle;rounded=0;orthogonalLoop=1;jettySize=auto;html=1;" edge="1" parent="1" source="OgUKtlnv02jX3dV951FN-7" target="OgUKtlnv02jX3dV951FN-11">
          <mxGeometry relative="1" as="geometry" />
        </mxCell>
        <mxCell id="OgUKtlnv02jX3dV951FN-7" value="a=0" style="rhombus;whiteSpace=wrap;html=1;" vertex="1" parent="1">
          <mxGeometry x="310" y="-740" width="80" height="80" as="geometry" />
        </mxCell>
        <mxCell id="OgUKtlnv02jX3dV951FN-8" style="edgeStyle=orthogonalEdgeStyle;rounded=0;orthogonalLoop=1;jettySize=auto;html=1;exitX=1;exitY=0.5;exitDx=0;exitDy=0;entryX=1;entryY=0.5;entryDx=0;entryDy=0;" edge="1" parent="1" source="OgUKtlnv02jX3dV951FN-9" target="OgUKtlnv02jX3dV951FN-28">
          <mxGeometry relative="1" as="geometry">
            <mxPoint x="760" y="90" as="targetPoint" />
            <Array as="points">
              <mxPoint x="761" y="-700" />
              <mxPoint x="761" y="-30" />
            </Array>
          </mxGeometry>
        </mxCell>
        <mxCell id="OgUKtlnv02jX3dV951FN-9" value="x=-c/b" style="whiteSpace=wrap;html=1;" vertex="1" parent="1">
          <mxGeometry x="450" y="-730" width="120" height="60" as="geometry" />
        </mxCell>
        <mxCell id="OgUKtlnv02jX3dV951FN-10" value="" style="edgeStyle=orthogonalEdgeStyle;rounded=0;orthogonalLoop=1;jettySize=auto;html=1;" edge="1" parent="1" source="OgUKtlnv02jX3dV951FN-11" target="OgUKtlnv02jX3dV951FN-15">
          <mxGeometry relative="1" as="geometry" />
        </mxCell>
        <mxCell id="OgUKtlnv02jX3dV951FN-11" value="denta=b*b-4*a*c" style="whiteSpace=wrap;html=1;" vertex="1" parent="1">
          <mxGeometry x="290" y="-600" width="120" height="60" as="geometry" />
        </mxCell>
        <mxCell id="OgUKtlnv02jX3dV951FN-12" value="sai" style="text;html=1;align=center;verticalAlign=middle;resizable=0;points=[];autosize=1;strokeColor=none;fillColor=none;" vertex="1" parent="1">
          <mxGeometry x="350" y="-650" width="40" height="30" as="geometry" />
        </mxCell>
        <mxCell id="OgUKtlnv02jX3dV951FN-13" value="" style="edgeStyle=orthogonalEdgeStyle;rounded=0;orthogonalLoop=1;jettySize=auto;html=1;" edge="1" parent="1" source="OgUKtlnv02jX3dV951FN-15" target="OgUKtlnv02jX3dV951FN-16">
          <mxGeometry relative="1" as="geometry" />
        </mxCell>
        <mxCell id="OgUKtlnv02jX3dV951FN-14" value="" style="edgeStyle=orthogonalEdgeStyle;rounded=0;orthogonalLoop=1;jettySize=auto;html=1;" edge="1" parent="1" source="OgUKtlnv02jX3dV951FN-15" target="OgUKtlnv02jX3dV951FN-20">
          <mxGeometry relative="1" as="geometry" />
        </mxCell>
        <mxCell id="OgUKtlnv02jX3dV951FN-15" value="denta&amp;lt;0" style="rhombus;whiteSpace=wrap;html=1;" vertex="1" parent="1">
          <mxGeometry x="310" y="-500" width="80" height="80" as="geometry" />
        </mxCell>
        <mxCell id="OgUKtlnv02jX3dV951FN-16" value="vô nghiệm" style="whiteSpace=wrap;html=1;" vertex="1" parent="1">
          <mxGeometry x="450" y="-490" width="120" height="60" as="geometry" />
        </mxCell>
        <mxCell id="OgUKtlnv02jX3dV951FN-17" value="đúng" style="text;html=1;align=center;verticalAlign=middle;resizable=0;points=[];autosize=1;strokeColor=none;fillColor=none;" vertex="1" parent="1">
          <mxGeometry x="390" y="-482" width="50" height="30" as="geometry" />
        </mxCell>
        <mxCell id="OgUKtlnv02jX3dV951FN-18" value="" style="edgeStyle=orthogonalEdgeStyle;rounded=0;orthogonalLoop=1;jettySize=auto;html=1;" edge="1" parent="1" source="OgUKtlnv02jX3dV951FN-20" target="OgUKtlnv02jX3dV951FN-22">
          <mxGeometry relative="1" as="geometry" />
        </mxCell>
        <mxCell id="OgUKtlnv02jX3dV951FN-19" value="" style="edgeStyle=orthogonalEdgeStyle;rounded=0;orthogonalLoop=1;jettySize=auto;html=1;" edge="1" parent="1" source="OgUKtlnv02jX3dV951FN-20" target="OgUKtlnv02jX3dV951FN-25">
          <mxGeometry relative="1" as="geometry" />
        </mxCell>
        <mxCell id="OgUKtlnv02jX3dV951FN-20" value="denta=0" style="rhombus;whiteSpace=wrap;html=1;" vertex="1" parent="1">
          <mxGeometry x="310" y="-370" width="80" height="80" as="geometry" />
        </mxCell>
        <mxCell id="OgUKtlnv02jX3dV951FN-21" value="sai" style="text;html=1;align=center;verticalAlign=middle;resizable=0;points=[];autosize=1;strokeColor=none;fillColor=none;" vertex="1" parent="1">
          <mxGeometry x="340" y="-420" width="40" height="30" as="geometry" />
        </mxCell>
        <mxCell id="OgUKtlnv02jX3dV951FN-22" value="nghiệm kép&lt;br&gt;x=-b/(2*a)" style="whiteSpace=wrap;html=1;" vertex="1" parent="1">
          <mxGeometry x="450" y="-360" width="120" height="60" as="geometry" />
        </mxCell>
        <mxCell id="OgUKtlnv02jX3dV951FN-23" value="đúng" style="text;html=1;align=center;verticalAlign=middle;resizable=0;points=[];autosize=1;strokeColor=none;fillColor=none;" vertex="1" parent="1">
          <mxGeometry x="390" y="-360" width="50" height="30" as="geometry" />
        </mxCell>
        <mxCell id="OgUKtlnv02jX3dV951FN-24" value="" style="edgeStyle=orthogonalEdgeStyle;rounded=0;orthogonalLoop=1;jettySize=auto;html=1;" edge="1" parent="1" source="OgUKtlnv02jX3dV951FN-25" target="OgUKtlnv02jX3dV951FN-27">
          <mxGeometry relative="1" as="geometry" />
        </mxCell>
        <mxCell id="OgUKtlnv02jX3dV951FN-25" value="denta&amp;gt;0" style="rhombus;whiteSpace=wrap;html=1;" vertex="1" parent="1">
          <mxGeometry x="310" y="-240" width="80" height="80" as="geometry" />
        </mxCell>
        <mxCell id="OgUKtlnv02jX3dV951FN-26" value="sai" style="text;html=1;align=center;verticalAlign=middle;resizable=0;points=[];autosize=1;strokeColor=none;fillColor=none;" vertex="1" parent="1">
          <mxGeometry x="340" y="-282" width="40" height="30" as="geometry" />
        </mxCell>
        <mxCell id="OgUKtlnv02jX3dV951FN-27" value="phương trình có 2 nghiệm phân biệt" style="whiteSpace=wrap;html=1;" vertex="1" parent="1">
          <mxGeometry x="450" y="-230" width="120" height="60" as="geometry" />
        </mxCell>
        <mxCell id="OgUKtlnv02jX3dV951FN-28" value="end" style="ellipse;whiteSpace=wrap;html=1;" vertex="1" parent="1">
          <mxGeometry x="330" y="-70" width="120" height="80" as="geometry" />
        </mxCell>
        <mxCell id="OgUKtlnv02jX3dV951FN-29" value="" style="endArrow=none;html=1;rounded=0;exitX=1;exitY=0.25;exitDx=0;exitDy=0;" edge="1" parent="1" source="OgUKtlnv02jX3dV951FN-16">
          <mxGeometry width="50" height="50" relative="1" as="geometry">
            <mxPoint x="330" y="-550" as="sourcePoint" />
            <mxPoint x="760" y="-470" as="targetPoint" />
          </mxGeometry>
        </mxCell>
        <mxCell id="OgUKtlnv02jX3dV951FN-30" value="" style="endArrow=none;html=1;rounded=0;exitX=1;exitY=0.25;exitDx=0;exitDy=0;" edge="1" parent="1" source="OgUKtlnv02jX3dV951FN-22">
          <mxGeometry width="50" height="50" relative="1" as="geometry">
            <mxPoint x="330" y="-350" as="sourcePoint" />
            <mxPoint x="760" y="-340" as="targetPoint" />
          </mxGeometry>
        </mxCell>
        <mxCell id="OgUKtlnv02jX3dV951FN-31" value="" style="endArrow=none;html=1;rounded=0;exitX=1;exitY=0.5;exitDx=0;exitDy=0;" edge="1" parent="1" source="OgUKtlnv02jX3dV951FN-27">
          <mxGeometry width="50" height="50" relative="1" as="geometry">
            <mxPoint x="330" y="-350" as="sourcePoint" />
            <mxPoint x="760" y="-210" as="targetPoint" />
          </mxGeometry>
        </mxCell>
      </root>
    </mxGraphModel>
  </diagram>
</mxfile>
